<svg xmlns="http://www.w3.org/2000/svg" viewBox="0 0 256 256" role="img" aria-labelledby="title desc">
  <title id="title">Marcus Thorne portrait</title>
  <desc id="desc">Premium cinematic portrait illustration of Marcus Thorne.</desc>
  <defs>
    <radialGradient id="bg" cx="30%" cy="25%" r="82%">
      <stop offset="0%" stop-color="#eef3f8"/>
      <stop offset="55%" stop-color="#aeb9c7"/>
      <stop offset="100%" stop-color="#5a6471"/>
    </radialGradient>
    <linearGradient id="rim" x1="0" x2="1">
      <stop offset="0%" stop-color="#f6ddaa" stop-opacity="0.9"/>
      <stop offset="100%" stop-color="#c99d33" stop-opacity="0.15"/>
    </linearGradient>
    <linearGradient id="suit" x1="0" x2="1">
      <stop offset="0%" stop-color="#16191d"/>
      <stop offset="100%" stop-color="#47515e"/>
    </linearGradient>
  </defs>
  <rect width="256" height="256" rx="128" fill="url(#bg)"/>
  <circle cx="128" cy="128" r="124" fill="none" stroke="url(#rim)" stroke-width="8"/>
  <path d="M34 212c16-46 54-71 94-71 41 0 79 24 94 71" fill="url(#suit)"/>
  <path d="M101 163l27 21 27-21v49h-54z" fill="#d4af37"/>
  <ellipse cx="128" cy="101" rx="40" ry="48" fill="#d8a37d"/>
  <path d="M85 101c4-39 28-64 59-64 32 0 56 25 59 66-11-8-23-13-35-14-12 16-31 24-55 24-10 0-19-4-28-12z" fill="#2d2f33"/>
  <path d="M104 97c7-4 15-4 22 0" stroke="#634635" stroke-width="5" stroke-linecap="round"/>
  <path d="M134 97c7-4 15-4 22 0" stroke="#634635" stroke-width="5" stroke-linecap="round"/>
  <ellipse cx="114" cy="112" rx="4.5" ry="5.5" fill="#231914"/>
  <ellipse cx="144" cy="112" rx="4.5" ry="5.5" fill="#231914"/>
  <path d="M128 116v15" stroke="#bb8766" stroke-width="4" stroke-linecap="round"/>
  <path d="M114 141c8 6 20 6 28 0" stroke="#7c4b3d" stroke-width="4.5" stroke-linecap="round" fill="none"/>
  <path d="M170 81c13 10 20 26 20 44" stroke="#edf2f7" stroke-width="5" stroke-linecap="round" opacity="0.42"/>
  <circle cx="76" cy="186" r="24" fill="#ffffff" opacity="0.08"/>
  <path d="M86 78c9-20 26-34 46-38" stroke="#45484f" stroke-width="8" stroke-linecap="round" opacity="0.65"/>
</svg>
